<svg viewport="0 0 20 20" fill="none" xmlns="http://www.w3.org/2000/svg">
    <path d="M11.499 3.25a1.25 1.25 0 1 1 0 2.5 1.25 1.25 0 0 1 0-2.5zM11.706 14.53a.999.999 0 0 1 0-1.414l4.907-4.907a1.71 1.71 0 0 1 2.417 2.417l-4.907 4.907a.999.999 0 0 1-1.414 0l-1.003-1.003z" fill="#fff"/>
    <path d="M4.499 14H8.55c.256-.394.675-.762 1.088-1h-5.14a1.51 1.51 0 0 1-1.483-1.336l4.53-3.731a1.503 1.503 0 0 1 1.907 0l3.302 2.72.711-.711-3.377-2.781a2.501 2.501 0 0 0-3.18 0L3 10.382V3.5c0-.827.673-1.5 1.5-1.5h8c.827 0 1.5.673 1.5 1.5v5.908l1-1V3.5c0-1.379-1.122-2.5-2.5-2.5h-8a2.503 2.503 0 0 0-2.5 2.5v7.764c-.111 1.457 1.025 2.744 2.5 2.736z" fill="#fff"/>
    <path d="M19.03 8.208a1.71 1.71 0 0 0-2.417 0l-4.719 4.719a.979.979 0 0 0-.27.593c-1.172-.212-2.813 1.026-2.488 2.184.095.394-.117 1.084-.444 1.304-.467.008-1.175.492-1.142 0 .202-.502.261-1.545-.455-1.914-1.317-.679-3.045.78-4.287 1.213-.435.123-.955-.095-1.369-.359-.239-.153-.542.117-.405.411.613 1.539 2.564 1.44 3.717.597.451-.255.907-.515 1.464-.615.096-.018.164.131.125.245-.57 1.881 1.218 2.57 3.16 1.855.984.204 2.301-.139 3.244-1.085a2.498 2.498 0 0 0 .74-1.744c.295.036.6-.043.827-.27l4.72-4.719a1.71 1.71 0 0 0 0-2.417v.002zm-6.993 8.442c-.863.862-1.959.907-2.423.812.368-.302.65-1.449.517-1.859-.03-.303-.04-.394.212-.646 1.304-1.291 2.984.389 1.694 1.693z" fill="#fff"/>
</svg>